<svg width="21" height="24" viewBox="0 0 21 24" fill="none" xmlns="http://www.w3.org/2000/svg">
<path d="M18.9647 17.9123C18.6311 18.6743 18.2362 19.3758 17.7787 20.0207C17.1551 20.8999 16.6445 21.5085 16.251 21.8464C15.641 22.4011 14.9874 22.6852 14.2875 22.7013C13.7851 22.7013 13.1791 22.56 12.4738 22.2732C11.7662 21.9878 11.1159 21.8464 10.5213 21.8464C9.89764 21.8464 9.22882 21.9878 8.51342 22.2732C7.79694 22.56 7.21975 22.7094 6.77845 22.7242C6.10731 22.7525 5.43834 22.4603 4.7706 21.8464C4.34442 21.4788 3.81135 20.8487 3.17275 19.9561C2.48758 19.0028 1.92428 17.8975 1.48298 16.6372C1.01036 15.2761 0.773438 13.9579 0.773438 12.6818C0.773438 11.2201 1.09287 9.95933 1.7327 8.90282C2.23554 8.0542 2.90451 7.38478 3.74177 6.89335C4.57903 6.40192 5.48369 6.15149 6.45792 6.13547C6.991 6.13547 7.69005 6.29852 8.55876 6.61895C9.42503 6.94047 9.98125 7.10352 10.2251 7.10352C10.4074 7.10352 11.0253 6.91287 12.0728 6.53279C13.0634 6.1803 13.8994 6.03436 14.5843 6.09185C16.4402 6.23995 17.8345 6.96336 18.7618 8.26666C17.102 9.26109 16.2809 10.6539 16.2973 12.4407C16.3122 13.8325 16.8228 14.9906 17.8263 15.9102C18.2811 16.337 18.789 16.6669 19.3541 16.9011C19.2315 17.2525 19.1022 17.5891 18.9647 17.9123ZM14.7082 1.35043C14.7082 2.44128 14.3052 3.4598 13.5018 4.40254C12.5324 5.52327 11.3597 6.17088 10.0881 6.06869C10.0719 5.93782 10.0625 5.80008 10.0625 5.65535C10.0625 4.60813 10.5236 3.4874 11.3423 2.57106C11.7511 2.10709 12.2709 1.72132 12.9014 1.41357C13.5304 1.11042 14.1255 0.942772 14.6851 0.914062C14.7014 1.05989 14.7082 1.20573 14.7082 1.35041V1.35043Z" fill="#232323"/>
</svg>
