<svg width="25" height="24" viewBox="0 0 25 24" fill="none" xmlns="http://www.w3.org/2000/svg">
<path d="M7.19531 3V5.25M17.6953 3V5.25M3.44531 18.75V7.5C3.44531 6.90326 3.68237 6.33097 4.10432 5.90901C4.52628 5.48705 5.09858 5.25 5.69531 5.25H19.1953C19.792 5.25 20.3643 5.48705 20.7863 5.90901C21.2083 6.33097 21.4453 6.90326 21.4453 7.5V18.75M3.44531 18.75C3.44531 19.3467 3.68237 19.919 4.10432 20.341C4.52628 20.7629 5.09858 21 5.69531 21H19.1953C19.792 21 20.3643 20.7629 20.7863 20.341C21.2083 19.919 21.4453 19.3467 21.4453 18.75M3.44531 18.75V11.25C3.44531 10.6533 3.68237 10.081 4.10432 9.65901C4.52628 9.23705 5.09858 9 5.69531 9H19.1953C19.792 9 20.3643 9.23705 20.7863 9.65901C21.2083 10.081 21.4453 10.6533 21.4453 11.25V18.75M12.4453 12.75H12.4533V12.758H12.4453V12.75ZM12.4453 15H12.4533V15.008H12.4453V15ZM12.4453 17.25H12.4533V17.258H12.4453V17.25ZM10.1953 15H10.2033V15.008H10.1953V15ZM10.1953 17.25H10.2033V17.258H10.1953V17.25ZM7.94531 15H7.95331V15.008H7.94531V15ZM7.94531 17.25H7.95331V17.258H7.94531V17.25ZM14.6953 12.75H14.7033V12.758H14.6953V12.75ZM14.6953 15H14.7033V15.008H14.6953V15ZM14.6953 17.25H14.7033V17.258H14.6953V17.25ZM16.9453 12.75H16.9533V12.758H16.9453V12.75ZM16.9453 15H16.9533V15.008H16.9453V15Z" stroke="black" stroke-width="1.5" stroke-linecap="round" stroke-linejoin="round"/>
</svg>
