<svg width="24" height="24" viewBox="0 0 24 24" fill="none" xmlns="http://www.w3.org/2000/svg">
<g clip-path="url(#clip0_1246_6287)">
<path d="M4.5 23.25H19.5C20.4942 23.2488 21.4473 22.8533 22.1503 22.1503C22.8533 21.4473 23.2488 20.4942 23.25 19.5V4.5C23.2488 3.5058 22.8533 2.55267 22.1503 1.84966C21.4473 1.14666 20.4942 0.751191 19.5 0.75H4.5C3.5058 0.751191 2.55267 1.14666 1.84966 1.84966C1.14666 2.55267 0.751191 3.5058 0.75 4.5V19.5C0.751191 20.4942 1.14666 21.4473 1.84966 22.1503C2.55267 22.8533 3.5058 23.2488 4.5 23.25ZM2.25 4.5C2.25079 3.90351 2.4881 3.33167 2.90989 2.90989C3.33167 2.4881 3.90351 2.25079 4.5 2.25H19.5C20.0965 2.25079 20.6683 2.4881 21.0901 2.90989C21.5119 3.33167 21.7492 3.90351 21.75 4.5V19.5C21.7492 20.0965 21.5119 20.6683 21.0901 21.0901C20.6683 21.5119 20.0965 21.7492 19.5 21.75H4.5C3.90351 21.7492 3.33167 21.5119 2.90989 21.0901C2.4881 20.6683 2.25079 20.0965 2.25 19.5V4.5Z" fill="black"/>
</g>
<defs>
<clipPath id="clip0_1246_6287">
<rect width="24" height="24" fill="white"/>
</clipPath>
</defs>
</svg>
