<svg width="25" height="24" viewBox="0 0 25 24" fill="none" xmlns="http://www.w3.org/2000/svg">
<path d="M19.9453 14.25V11.625C19.9453 10.7299 19.5897 9.87145 18.9568 9.23851C18.3239 8.60558 17.4654 8.25 16.5703 8.25H15.0703C14.7719 8.25 14.4858 8.13147 14.2748 7.9205C14.0638 7.70952 13.9453 7.42337 13.9453 7.125V5.625C13.9453 4.72989 13.5897 3.87145 12.9568 3.23851C12.3239 2.60558 11.4654 2.25 10.5703 2.25H8.69531M10.9453 2.25H6.07031C5.44931 2.25 4.94531 2.754 4.94531 3.375V20.625C4.94531 21.246 5.44931 21.75 6.07031 21.75H18.8203C19.4413 21.75 19.9453 21.246 19.9453 20.625V11.25C19.9453 8.86305 18.9971 6.57387 17.3093 4.88604C15.6214 3.19821 13.3323 2.25 10.9453 2.25Z" stroke="black" stroke-width="1.5" stroke-linecap="round" stroke-linejoin="round"/>
</svg>
