<svg width="25" height="24" viewBox="0 0 25 24" fill="none" xmlns="http://www.w3.org/2000/svg">
<g clip-path="url(#clip0_1607_12861)">
<path d="M23.1207 24.0001C23.8522 24.0001 24.4453 23.407 24.4453 22.6755V1.32459C24.4453 0.592969 23.8522 0 23.1207 0H1.76991C1.03819 0 0.445312 0.592969 0.445312 1.32459V22.6755C0.445312 23.407 1.03819 24.0001 1.76991 24.0001H23.1207Z" fill="#395185"/>
<path d="M17.0047 24.0002V14.7062H20.1245L20.5915 11.0841H17.0047V8.7715C17.0047 7.72281 17.296 7.00816 18.7999 7.00816L20.7179 7.00731V3.76778C20.386 3.72362 19.2475 3.625 17.923 3.625C15.1576 3.625 13.2644 5.31297 13.2644 8.41291V11.0841H10.1367V14.7062H13.2644V24.0002H17.0047Z" fill="white"/>
</g>
<defs>
<clipPath id="clip0_1607_12861">
<rect width="24" height="24" fill="white" transform="translate(0.445312)"/>
</clipPath>
</defs>
</svg>
