<svg width="24" height="24" viewBox="0 0 24 24" fill="none" xmlns="http://www.w3.org/2000/svg">
<path d="M14.858 17.082C16.7212 16.8614 18.5519 16.4217 20.312 15.772C18.8214 14.1208 17.9977 11.9745 18.001 9.75V9C18.001 7.4087 17.3689 5.88258 16.2436 4.75736C15.1184 3.63214 13.5923 3 12.001 3C10.4097 3 8.88358 3.63214 7.75836 4.75736C6.63314 5.88258 6.001 7.4087 6.001 9V9.75C6.00402 11.9746 5.17999 14.121 3.689 15.772C5.422 16.412 7.249 16.857 9.144 17.082M14.858 17.082C12.96 17.3071 11.042 17.3071 9.144 17.082M14.858 17.082C15.0021 17.5319 15.0379 18.0094 14.9626 18.4757C14.8872 18.942 14.7028 19.384 14.4244 19.7656C14.1459 20.1472 13.7813 20.4576 13.3602 20.6716C12.9391 20.8856 12.4734 20.9972 12.001 20.9972C11.5286 20.9972 11.0629 20.8856 10.6418 20.6716C10.2207 20.4576 9.85607 20.1472 9.57762 19.7656C9.29917 19.384 9.11476 18.942 9.03941 18.4757C8.96406 18.0094 8.9999 17.5319 9.144 17.082M3.125 7.5C3.40697 5.82497 4.1588 4.26444 5.293 3M18.709 3C19.8432 4.26444 20.595 5.82497 20.877 7.5" stroke="black" stroke-width="1.5" stroke-linecap="round" stroke-linejoin="round"/>
</svg>
