<svg width="24" height="24" viewBox="0 0 24 24" fill="none" xmlns="http://www.w3.org/2000/svg">
<path d="M7.21669 10.9063C6.97455 10.4706 6.59459 10.1277 6.13646 9.93129C5.67832 9.73491 5.16794 9.69622 4.68544 9.82129C4.20293 9.94636 3.77562 10.2281 3.47057 10.6223C3.16552 11.0165 3 11.5009 3 11.9993C3 12.4978 3.16552 12.9821 3.47057 13.3763C3.77562 13.7705 4.20293 14.0523 4.68544 14.1773C5.16794 14.3024 5.67832 14.2637 6.13646 14.0673C6.59459 13.8709 6.97455 13.528 7.21669 13.0923M7.21669 10.9063C7.39669 11.2303 7.49969 11.6023 7.49969 11.9993C7.49969 12.3963 7.39669 12.7693 7.21669 13.0923M7.21669 10.9063L16.7827 5.59231M7.21669 13.0923L16.7827 18.4063M16.7827 5.59231C16.9229 5.85644 17.1144 6.08997 17.346 6.27924C17.5776 6.4685 17.8445 6.6097 18.1313 6.69458C18.4181 6.77947 18.7189 6.80633 19.0161 6.7736C19.3134 6.74087 19.6012 6.64921 19.8626 6.50397C20.124 6.35873 20.3539 6.16283 20.5387 5.92772C20.7236 5.69261 20.8597 5.42301 20.9391 5.13469C21.0185 4.84636 21.0397 4.5451 21.0013 4.2485C20.963 3.95191 20.8659 3.66593 20.7157 3.40731C20.4198 2.89765 19.9357 2.52444 19.3675 2.36792C18.7993 2.2114 18.1924 2.28405 17.6772 2.57026C17.162 2.85647 16.7797 3.33339 16.6124 3.8985C16.4452 4.46361 16.5063 5.07179 16.7827 5.59231ZM16.7827 18.4063C16.6392 18.6647 16.5479 18.9488 16.5142 19.2424C16.4804 19.5361 16.5049 19.8335 16.5861 20.1177C16.6673 20.4019 16.8037 20.6673 16.9875 20.8988C17.1712 21.1303 17.3988 21.3233 17.6572 21.4668C17.9156 21.6103 18.1997 21.7016 18.4933 21.7353C18.787 21.769 19.0844 21.7446 19.3685 21.6634C19.6527 21.5822 19.9182 21.4458 20.1496 21.262C20.3811 21.0783 20.5742 20.8507 20.7177 20.5923C21.0076 20.0705 21.0783 19.4549 20.9143 18.8809C20.7503 18.307 20.365 17.8217 19.8432 17.5318C19.3214 17.2419 18.7058 17.1712 18.1318 17.3352C17.5579 17.4992 17.0726 17.8845 16.7827 18.4063Z" stroke="black" stroke-width="1.5" stroke-linecap="round" stroke-linejoin="round"/>
</svg>
