<svg width="24" height="24" viewBox="0 0 24 24" fill="none" xmlns="http://www.w3.org/2000/svg">
<path d="M0.366652 4.80078C0.31849 4.80073 0.270791 4.81104 0.226287 4.83113C0.181782 4.85121 0.141345 4.88067 0.107289 4.91782C0.0732334 4.95498 0.0462277 4.99909 0.0278178 5.04764C0.00940781 5.09619 -4.50559e-05 5.14823 1.61456e-07 5.20077V12.0008C1.61456e-07 12.222 0.163883 12.4008 0.366652 12.4008C0.569421 12.4008 0.733303 12.222 0.733303 12.0008V5.20077C0.733354 5.14822 0.723905 5.09619 0.705497 5.04763C0.68709 4.99908 0.660084 4.95496 0.626027 4.91781C0.59197 4.88066 0.551531 4.8512 0.507024 4.83112C0.462516 4.81103 0.414815 4.80073 0.366652 4.80078ZM21.6333 4.80078C21.5851 4.80073 21.5374 4.81104 21.4929 4.83113C21.4484 4.85121 21.408 4.88067 21.3739 4.91782C21.3399 4.95498 21.3129 4.99909 21.2945 5.04764C21.2761 5.09619 21.2666 5.14823 21.2667 5.20077V12.0008C21.2666 12.0533 21.2761 12.1054 21.2945 12.1539C21.3129 12.2025 21.3399 12.2466 21.3739 12.2837C21.408 12.3209 21.4484 12.3503 21.4929 12.3704C21.5374 12.3905 21.5851 12.4008 21.6333 12.4008C21.6815 12.4008 21.7292 12.3905 21.7737 12.3704C21.8182 12.3503 21.8586 12.3209 21.8927 12.2837C21.9267 12.2466 21.9537 12.2025 21.9721 12.1539C21.9906 12.1054 22 12.0533 22 12.0008V5.20077C22 5.14823 21.9906 5.09619 21.9721 5.04764C21.9537 4.99909 21.9267 4.95498 21.8927 4.91782C21.8586 4.88067 21.8182 4.85121 21.7737 4.83113C21.7292 4.81104 21.6815 4.80073 21.6333 4.80078ZM21.8166 13.6008H20.3503C20.3017 13.6008 20.2551 13.6219 20.2207 13.6594C20.1863 13.6969 20.167 13.7477 20.167 13.8008L20.1673 14.8004C20.1673 15.0216 20.0035 15.2008 19.8007 15.2008C19.5983 15.2008 19.434 15.022 19.434 14.8012L19.4337 13.8008C19.4336 13.7477 19.4143 13.6969 19.3799 13.6594C19.3456 13.6219 19.2989 13.6008 19.2503 13.6008H18.1503C18.1017 13.6008 18.0551 13.6219 18.0207 13.6594C17.9863 13.6969 17.967 13.7477 17.967 13.8008L17.9673 15.6008C17.9673 15.6533 17.9579 15.7053 17.9394 15.7539C17.921 15.8024 17.894 15.8465 17.86 15.8837C17.8259 15.9208 17.7855 15.9503 17.741 15.9704C17.6965 15.9905 17.6488 16.0008 17.6007 16.0008C17.5525 16.0008 17.5048 15.9905 17.4603 15.9704C17.4158 15.9503 17.3754 15.9208 17.3414 15.8837C17.3073 15.8465 17.2803 15.8024 17.2619 15.7539C17.2435 15.7053 17.234 15.6533 17.234 15.6008L17.2333 13.8008C17.2333 13.7477 17.2139 13.6969 17.1796 13.6594C17.1452 13.6219 17.0985 13.6008 17.0499 13.6008H15.9499C15.9013 13.6008 15.8547 13.6219 15.8203 13.6594C15.7859 13.6969 15.7666 13.7477 15.7666 13.8008L15.767 14.8008C15.767 14.8533 15.7575 14.9053 15.7391 14.9539C15.7207 15.0024 15.6937 15.0465 15.6596 15.0836C15.6256 15.1208 15.5851 15.1502 15.5406 15.1703C15.4962 15.1904 15.4485 15.2008 15.4003 15.2008C15.3522 15.2008 15.3045 15.1904 15.26 15.1703C15.2155 15.1502 15.1751 15.1208 15.141 15.0836C15.107 15.0465 15.08 15.0024 15.0615 14.9539C15.0431 14.9053 15.0336 14.8533 15.0337 14.8008L15.0333 13.8008C15.0333 13.7477 15.014 13.6969 14.9796 13.6594C14.9452 13.6219 14.8986 13.6008 14.85 13.6008H13.75C13.7014 13.6008 13.6547 13.6219 13.6203 13.6594C13.586 13.6969 13.5666 13.7477 13.5666 13.8008L13.567 15.6008C13.567 15.6533 13.5576 15.7053 13.5391 15.7539C13.5207 15.8024 13.4937 15.8465 13.4597 15.8837C13.4256 15.9208 13.3852 15.9503 13.3407 15.9704C13.2962 15.9905 13.2485 16.0008 13.2004 16.0008C13.1522 16.0008 13.1045 15.9905 13.06 15.9704C13.0155 15.9503 12.9751 15.9208 12.9411 15.8837C12.907 15.8465 12.88 15.8024 12.8616 15.7539C12.8432 15.7053 12.8337 15.6533 12.8337 15.6008L12.8333 13.8008C12.8333 13.7477 12.814 13.6969 12.7796 13.6594C12.7452 13.6219 12.6986 13.6008 12.65 13.6008H11.55C11.5014 13.6008 11.4547 13.6219 11.4203 13.6594C11.386 13.6969 11.3666 13.7477 11.3666 13.8008L11.367 14.8008C11.367 14.8533 11.3576 14.9053 11.3391 14.9539C11.3207 15.0024 11.2937 15.0465 11.2597 15.0836C11.2256 15.1208 11.1852 15.1502 11.1407 15.1703C11.0962 15.1904 11.0485 15.2008 11.0004 15.2008C10.9522 15.2008 10.9045 15.1904 10.86 15.1703C10.8155 15.1502 10.7751 15.1208 10.7411 15.0836C10.707 15.0465 10.68 15.0024 10.6616 14.9539C10.6432 14.9053 10.6337 14.8533 10.6337 14.8008L10.6333 13.8008C10.6333 13.7477 10.614 13.6969 10.5796 13.6594C10.5452 13.6219 10.4986 13.6008 10.45 13.6008H9.34998C9.30136 13.6008 9.25473 13.6219 9.22035 13.6594C9.18597 13.6969 9.16665 13.7477 9.16663 13.8008L9.16698 15.6008C9.167 15.6533 9.15752 15.7053 9.1391 15.7539C9.12068 15.8024 9.09368 15.8465 9.05963 15.8837C9.02558 15.9208 8.98515 15.9503 8.94066 15.9704C8.89617 15.9905 8.84848 16.0008 8.80033 16.0008C8.75217 16.0008 8.70449 15.9905 8.66 15.9704C8.6155 15.9503 8.57508 15.9208 8.54103 15.8837C8.50698 15.8465 8.47997 15.8024 8.46155 15.7539C8.44313 15.7053 8.43366 15.6533 8.43367 15.6008L8.43329 13.8008C8.43328 13.7477 8.41396 13.6969 8.37957 13.6594C8.34519 13.6219 8.29856 13.6008 8.24994 13.6008H7.14994C7.10132 13.6008 7.05469 13.6219 7.02031 13.6594C6.98593 13.6969 6.96661 13.7477 6.9666 13.8008L6.96694 14.8008C6.96696 14.8533 6.95748 14.9053 6.93906 14.9539C6.92064 15.0024 6.89364 15.0465 6.85959 15.0836C6.82554 15.1208 6.78511 15.1502 6.74062 15.1703C6.69613 15.1904 6.64844 15.2008 6.60029 15.2008C6.55213 15.2008 6.50445 15.1904 6.45996 15.1703C6.41546 15.1502 6.37504 15.1208 6.34099 15.0836C6.30694 15.0465 6.27993 15.0024 6.26151 14.9539C6.24309 14.9053 6.23362 14.8533 6.23364 14.8008L6.23325 13.8008C6.23324 13.7477 6.21392 13.6969 6.17954 13.6594C6.14515 13.6219 6.09853 13.6008 6.0499 13.6008H4.9499C4.90128 13.6008 4.85465 13.6219 4.82027 13.6594C4.78589 13.6969 4.76657 13.7477 4.76656 13.8008L4.76694 15.6008C4.76696 15.6533 4.75749 15.7053 4.73907 15.7539C4.72065 15.8024 4.69364 15.8465 4.65959 15.8837C4.62554 15.9208 4.58512 15.9503 4.54062 15.9704C4.49613 15.9905 4.44845 16.0008 4.40029 16.0008C4.35214 16.0008 4.30445 15.9905 4.25996 15.9704C4.21547 15.9503 4.17504 15.9208 4.14099 15.8837C4.10694 15.8465 4.07994 15.8024 4.06152 15.7539C4.0431 15.7053 4.03362 15.6533 4.03364 15.6008L4.0333 13.8008C4.03329 13.7477 4.01397 13.6969 3.97958 13.6594C3.9452 13.6219 3.89857 13.6008 3.84995 13.6008H2.74999C2.70137 13.6008 2.65474 13.6219 2.62036 13.6594C2.58598 13.6969 2.56666 13.7477 2.56665 13.8008V14.8008C2.56665 15.022 2.40277 15.2008 2.2 15.2008C1.99723 15.2008 1.83334 15.022 1.83334 14.8008V13.8008C1.83333 13.7477 1.81401 13.6969 1.77963 13.6594C1.74525 13.6219 1.69862 13.6008 1.65 13.6008H0.183347C0.134724 13.6008 0.0880958 13.6219 0.0537139 13.6594C0.0193321 13.6969 1.15526e-05 13.7477 1.61456e-07 13.8008V19.0008C1.15526e-05 19.0538 0.0193321 19.1047 0.0537139 19.1422C0.0880958 19.1797 0.134724 19.2008 0.183347 19.2008H21.8167C21.8653 19.2008 21.9119 19.1797 21.9463 19.1422C21.9807 19.1047 22 19.0538 22 19.0008V13.8008C22 13.7477 21.9806 13.6969 21.9462 13.6594C21.9119 13.6219 21.8652 13.6008 21.8166 13.6008ZM20.4545 8.54436L18.752 6.14436C18.66 6.01475 18.5089 5.96797 18.3744 6.02436C18.2398 6.08197 18.15 6.23234 18.15 6.40077V8.40078H3.84999V6.40039C3.84999 6.23197 3.76015 6.08159 3.62561 6.02441C3.49103 5.96722 3.34034 6.01442 3.24796 6.14441L1.54554 8.54478C1.49312 8.6188 1.46669 8.70997 1.46669 8.80077C1.46669 8.89156 1.49308 8.98278 1.54554 9.05717L3.24796 11.4572C3.31396 11.55 3.41038 11.6008 3.50938 11.6008C3.54827 11.6008 3.5875 11.5927 3.62527 11.5767C3.75984 11.5191 3.84965 11.3688 3.84965 11.2008V9.20075H18.1496V11.2008C18.1496 11.3692 18.2395 11.5196 18.374 11.5767C18.4109 11.5925 18.4502 11.6006 18.4899 11.6008C18.5889 11.6008 18.6853 11.5499 18.7517 11.4572L20.4541 9.05717C20.5069 8.98278 20.5333 8.89198 20.5333 8.80077C20.5333 8.70955 20.5069 8.6188 20.4545 8.54436Z" fill="#232323"/>
</svg>
