<svg width="25" height="24" viewBox="0 0 25 24" fill="none" xmlns="http://www.w3.org/2000/svg">
<path d="M10.9453 6H20.6953M10.9453 6C10.9453 6.39782 10.7873 6.77936 10.506 7.06066C10.2247 7.34196 9.84314 7.5 9.44531 7.5C9.04749 7.5 8.66596 7.34196 8.38465 7.06066C8.10335 6.77936 7.94531 6.39782 7.94531 6M10.9453 6C10.9453 5.60218 10.7873 5.22064 10.506 4.93934C10.2247 4.65804 9.84314 4.5 9.44531 4.5C9.04749 4.5 8.66596 4.65804 8.38465 4.93934C8.10335 5.22064 7.94531 5.60218 7.94531 6M7.94531 6H4.19531M10.9453 18H20.6953M10.9453 18C10.9453 18.3978 10.7873 18.7794 10.506 19.0607C10.2247 19.342 9.84314 19.5 9.44531 19.5C9.04749 19.5 8.66596 19.342 8.38465 19.0607C8.10335 18.7794 7.94531 18.3978 7.94531 18M10.9453 18C10.9453 17.6022 10.7873 17.2206 10.506 16.9393C10.2247 16.658 9.84314 16.5 9.44531 16.5C9.04749 16.5 8.66596 16.658 8.38465 16.9393C8.10335 17.2206 7.94531 17.6022 7.94531 18M7.94531 18H4.19531M16.9453 12H20.6953M16.9453 12C16.9453 12.3978 16.7873 12.7794 16.506 13.0607C16.2247 13.342 15.8431 13.5 15.4453 13.5C15.0475 13.5 14.666 13.342 14.3847 13.0607C14.1033 12.7794 13.9453 12.3978 13.9453 12M16.9453 12C16.9453 11.6022 16.7873 11.2206 16.506 10.9393C16.2247 10.658 15.8431 10.5 15.4453 10.5C15.0475 10.5 14.666 10.658 14.3847 10.9393C14.1033 11.2206 13.9453 11.6022 13.9453 12M13.9453 12H4.19531" stroke="black" stroke-width="1.5" stroke-linecap="round" stroke-linejoin="round"/>
</svg>
