<svg width="24" height="24" viewBox="0 0 24 24" fill="none" xmlns="http://www.w3.org/2000/svg">
<path d="M9.143 17.0825C10.4184 17.2336 11.7038 17.2831 12.987 17.2305M9.143 17.0825C7.27947 16.8619 5.44848 16.4222 3.688 15.7725C5.06854 14.2443 5.88074 12.2872 5.988 10.2305M9.143 17.0825C8.89168 17.8315 8.94594 18.6494 9.29402 19.3586C9.64209 20.0678 10.2559 20.6111 11.0021 20.8705C11.7483 21.1299 12.5668 21.0845 13.2797 20.7442C13.9926 20.4038 14.5425 19.7959 14.81 19.0525M16.775 16.7755L21 21.0005M16.775 16.7755C17.9777 16.5328 19.1599 16.1975 20.311 15.7725C18.8204 14.1213 17.9967 11.975 18 9.75052V9.00052C18.001 7.62786 17.5313 6.29635 16.6693 5.22812C15.8073 4.15989 14.605 3.41953 13.2631 3.13056C11.9212 2.84159 10.5208 3.02148 9.29548 3.64021C8.07018 4.25894 7.09407 5.27911 6.53 6.53052M16.775 16.7755L6.53 6.53052M6.53 6.53052L3 3.00052" stroke="black" stroke-width="1.5" stroke-linecap="round" stroke-linejoin="round"/>
</svg>
