<svg width="24" height="24" viewBox="0 0 24 24" fill="none" xmlns="http://www.w3.org/2000/svg">
<path d="M15 11.2495L16.5 12.7495L17.25 11.9995V8.7575L19.526 8.1475C20.0345 8.01104 20.4982 7.74315 20.8704 7.37075C21.2426 6.99834 21.5102 6.53454 21.6464 6.02593C21.7826 5.51733 21.7825 4.98185 21.6462 4.47328C21.5099 3.96472 21.2421 3.50098 20.8698 3.12868C20.4975 2.75638 20.0338 2.48861 19.5252 2.35229C19.0166 2.21597 18.4812 2.2159 17.9726 2.35208C17.464 2.48826 17.0002 2.7559 16.6278 3.12811C16.2553 3.50031 15.9875 3.96397 15.851 4.4725L15.241 6.7495H12L11.25 7.4995L12.75 8.9995M15 11.2495L6.53 19.7195C6.19 20.0595 5.73 20.2495 5.25 20.2495C4.77 20.2495 4.31 20.4395 3.97 20.7795L3 21.7495L2.25 20.9995L3.22 20.0295C3.56 19.6895 3.75 19.2295 3.75 18.7495C3.75 18.2695 3.94 17.8095 4.28 17.4695L12.75 8.9995M15 11.2495L12.75 8.9995" stroke="#232323" stroke-width="1.5" stroke-linecap="round" stroke-linejoin="round"/>
</svg>
