<svg width="25" height="24" viewBox="0 0 25 24" fill="none" xmlns="http://www.w3.org/2000/svg">
<g clip-path="url(#clip0_1449_12300)">
<path d="M5.76422 14.5027L4.92881 17.6213L1.87542 17.6859C0.962906 15.9934 0.445312 14.057 0.445312 11.9992C0.445312 10.0093 0.92925 8.13277 1.78706 6.48047H1.78772L4.50609 6.97884L5.69691 9.68091C5.44767 10.4075 5.31183 11.1875 5.31183 11.9992C5.31192 12.88 5.47148 13.724 5.76422 14.5027Z" fill="#FBBB00"/>
<path d="M24.2375 9.75781C24.3753 10.4837 24.4471 11.2334 24.4471 11.9996C24.4471 12.8587 24.3568 13.6967 24.1847 14.5051C23.6006 17.2558 22.0742 19.6578 19.9597 21.3576L19.959 21.3569L16.5351 21.1822L16.0505 18.1572C17.4536 17.3343 18.5501 16.0466 19.1277 14.5051H12.7109V9.75781H24.2375Z" fill="#518EF8"/>
<path d="M19.9568 21.3577L19.9574 21.3584C17.901 23.0113 15.2886 24.0004 12.4449 24.0004C7.875 24.0004 3.90183 21.4461 1.875 17.6872L5.7638 14.5039C6.77719 17.2085 9.3862 19.1338 12.4449 19.1338C13.7596 19.1338 14.9913 18.7784 16.0482 18.158L19.9568 21.3577Z" fill="#28B446"/>
<path d="M20.103 2.76262L16.2155 5.94525C15.1217 5.26153 13.8287 4.86656 12.4434 4.86656C9.31549 4.86656 6.65767 6.88017 5.69505 9.68175L1.78581 6.48131H1.78516C3.78231 2.63077 7.80559 0 12.4434 0C15.355 0 18.0247 1.03716 20.103 2.76262Z" fill="#F14336"/>
</g>
<defs>
<clipPath id="clip0_1449_12300">
<rect width="24" height="24" fill="white" transform="translate(0.445312)"/>
</clipPath>
</defs>
</svg>
