<svg width="25" height="24" viewBox="0 0 25 24" fill="none" xmlns="http://www.w3.org/2000/svg">
<path d="M12.4453 7.5C11.5553 7.5 10.6853 7.76392 9.94525 8.25839C9.20522 8.75285 8.62845 9.45566 8.28786 10.2779C7.94726 11.1002 7.85815 12.005 8.03178 12.8779C8.20541 13.7508 8.634 14.5526 9.26333 15.182C9.89267 15.8113 10.6945 16.2399 11.5674 16.4135C12.4403 16.5872 13.3451 16.4981 14.1674 16.1575C14.9897 15.8169 15.6925 15.2401 16.1869 14.5001C16.6814 13.76 16.9453 12.89 16.9453 12C16.9441 10.8069 16.4696 9.66303 15.6259 8.81939C14.7823 7.97575 13.6384 7.50124 12.4453 7.5ZM12.4453 15C11.852 15 11.2719 14.8241 10.7786 14.4944C10.2853 14.1648 9.90074 13.6962 9.67367 13.1481C9.44661 12.5999 9.3872 11.9967 9.50296 11.4147C9.61871 10.8328 9.90443 10.2982 10.324 9.87868C10.7435 9.45912 11.2781 9.1734 11.86 9.05764C12.442 8.94189 13.0452 9.0013 13.5934 9.22836C14.1415 9.45542 14.6101 9.83994 14.9397 10.3333C15.2694 10.8266 15.4453 11.4067 15.4453 12C15.4453 12.7956 15.1292 13.5587 14.5666 14.1213C14.004 14.6839 13.241 15 12.4453 15ZM16.9453 2.25H7.94531C6.55338 2.25149 5.21889 2.80509 4.23465 3.78933C3.2504 4.77358 2.6968 6.10807 2.69531 7.5V16.5C2.6968 17.8919 3.2504 19.2264 4.23465 20.2107C5.21889 21.1949 6.55338 21.7485 7.94531 21.75H16.9453C18.3372 21.7485 19.6717 21.1949 20.656 20.2107C21.6402 19.2264 22.1938 17.8919 22.1953 16.5V7.5C22.1938 6.10807 21.6402 4.77358 20.656 3.78933C19.6717 2.80509 18.3372 2.25149 16.9453 2.25ZM20.6953 16.5C20.6953 17.4946 20.3002 18.4484 19.597 19.1516C18.8937 19.8549 17.9399 20.25 16.9453 20.25H7.94531C6.95075 20.25 5.99692 19.8549 5.29366 19.1516C4.5904 18.4484 4.19531 17.4946 4.19531 16.5V7.5C4.19531 6.50544 4.5904 5.55161 5.29366 4.84835C5.99692 4.14509 6.95075 3.75 7.94531 3.75H16.9453C17.9399 3.75 18.8937 4.14509 19.597 4.84835C20.3002 5.55161 20.6953 6.50544 20.6953 7.5V16.5ZM18.4453 7.125C18.4453 7.3475 18.3793 7.56501 18.2557 7.75002C18.1321 7.93502 17.9564 8.07922 17.7508 8.16436C17.5453 8.24951 17.3191 8.27179 17.1008 8.22838C16.8826 8.18498 16.6822 8.07783 16.5248 7.9205C16.3675 7.76316 16.2603 7.56271 16.2169 7.34448C16.1735 7.12625 16.1958 6.90005 16.2809 6.69448C16.3661 6.48891 16.5103 6.31321 16.6953 6.1896C16.8803 6.06598 17.0978 6 17.3203 6C17.6187 6 17.9048 6.11853 18.1158 6.3295C18.3268 6.54048 18.4453 6.82663 18.4453 7.125Z" fill="#4F4F4F"/>
</svg>
