<svg width="25" height="24" viewBox="0 0 25 24" fill="none" xmlns="http://www.w3.org/2000/svg">
<path d="M9.07031 12C9.07031 12.0995 9.0308 12.1948 8.96048 12.2652C8.89015 12.3355 8.79477 12.375 8.69531 12.375C8.59586 12.375 8.50047 12.3355 8.43015 12.2652C8.35982 12.1948 8.32031 12.0995 8.32031 12C8.32031 11.9005 8.35982 11.8052 8.43015 11.7348C8.50047 11.6645 8.59586 11.625 8.69531 11.625C8.79477 11.625 8.89015 11.6645 8.96048 11.7348C9.0308 11.8052 9.07031 11.9005 9.07031 12ZM9.07031 12H8.69531M12.8203 12C12.8203 12.0995 12.7808 12.1948 12.7105 12.2652C12.6402 12.3355 12.5448 12.375 12.4453 12.375C12.3459 12.375 12.2505 12.3355 12.1801 12.2652C12.1098 12.1948 12.0703 12.0995 12.0703 12C12.0703 11.9005 12.1098 11.8052 12.1801 11.7348C12.2505 11.6645 12.3459 11.625 12.4453 11.625C12.5448 11.625 12.6402 11.6645 12.7105 11.7348C12.7808 11.8052 12.8203 11.9005 12.8203 12ZM12.8203 12H12.4453M16.5703 12C16.5703 12.0995 16.5308 12.1948 16.4605 12.2652C16.3902 12.3355 16.2948 12.375 16.1953 12.375C16.0959 12.375 16.0005 12.3355 15.9301 12.2652C15.8598 12.1948 15.8203 12.0995 15.8203 12C15.8203 11.9005 15.8598 11.8052 15.9301 11.7348C16.0005 11.6645 16.0959 11.625 16.1953 11.625C16.2948 11.625 16.3902 11.6645 16.4605 11.7348C16.5308 11.8052 16.5703 11.9005 16.5703 12ZM16.5703 12H16.1953M21.4453 12C21.4453 16.556 17.4153 20.25 12.4453 20.25C11.5825 20.251 10.7233 20.1377 9.89031 19.913C8.71607 20.7389 7.28364 21.1141 5.85531 20.97C5.69651 20.9547 5.53838 20.933 5.38131 20.905C5.87418 20.3241 6.21078 19.6272 6.35931 18.88C6.44931 18.423 6.22631 17.979 5.89231 17.654C4.37531 16.178 3.44531 14.189 3.44531 12C3.44531 7.444 7.47531 3.75 12.4453 3.75C17.4153 3.75 21.4453 7.444 21.4453 12Z" stroke="black" stroke-width="1.5" stroke-linecap="round" stroke-linejoin="round"/>
</svg>
