<svg width="24" height="24" viewBox="0 0 24 24" fill="none" xmlns="http://www.w3.org/2000/svg">
<path d="M21.0316 10.711C21.3821 9.85302 21.4992 8.91758 21.3711 7.9997C21.2429 7.08182 20.8741 6.21422 20.3021 5.48505C19.73 4.75588 18.9752 4.19114 18.1142 3.8482C17.2532 3.50526 16.3167 3.39635 15.4 3.53253C14.8319 2.80074 14.0803 2.2323 13.2214 1.88495C12.3626 1.53759 11.4271 1.42369 10.51 1.5548C9.59291 1.68591 8.72683 2.05736 7.99971 2.63145C7.27259 3.20554 6.71034 3.96181 6.37003 4.82347C5.45178 4.94916 4.58317 5.3157 3.85247 5.88583C3.12177 6.45596 2.55501 7.20937 2.2098 8.06949C1.86459 8.92961 1.75323 9.86579 1.88703 10.7829C2.02083 11.7 2.39503 12.5653 2.97159 13.291C2.69024 13.9805 2.55879 14.7219 2.58597 15.4661C2.61315 16.2103 2.79834 16.9402 3.12925 17.6074C3.46016 18.2745 3.9292 18.8636 4.50525 19.3355C5.08129 19.8075 5.75115 20.1515 6.47034 20.3447C6.91612 20.4667 7.37598 20.5298 7.83816 20.5322C8.09453 20.532 8.35053 20.5129 8.60409 20.475C9.17232 21.2066 9.92397 21.7747 10.7828 22.1219C11.6415 22.469 12.5769 22.5828 13.4938 22.4516C14.4108 22.3204 15.2767 21.9489 16.0037 21.3749C16.7307 20.8008 17.2929 20.0447 17.6332 19.1832C18.5514 19.0575 19.42 18.6909 20.1507 18.1208C20.8814 17.5507 21.4482 16.7973 21.7934 15.9371C22.1386 15.077 22.25 14.1408 22.1162 13.2237C21.9824 12.3066 21.6082 11.4413 21.0316 10.7157V10.711ZM17.1438 5.10378C18.0889 5.35642 18.8978 5.96837 19.398 6.80907C19.8982 7.64977 20.0501 8.65266 19.8213 9.60378C19.7322 9.54472 19.6422 9.48753 19.5485 9.43409L15.3766 7.02097C15.2626 6.95514 15.1332 6.92049 15.0016 6.92049C14.8699 6.92049 14.7406 6.95514 14.6266 7.02097L10.5016 9.40316V7.67066L14.2985 5.47878C14.7244 5.23137 15.1952 5.07084 15.6836 5.00647C16.172 4.9421 16.6683 4.97518 17.1438 5.10378ZM13.5016 12.8672L12.0016 13.7335L10.5016 12.8672V11.1347L12.0016 10.2685L13.5016 11.1347V12.8672ZM7.50159 6.75097C7.50194 6.01785 7.71717 5.3009 8.12067 4.68881C8.52417 4.07672 9.09824 3.59632 9.77187 3.30703C10.4455 3.01775 11.1892 2.93226 11.9109 3.06115C12.6326 3.19004 13.3007 3.52765 13.8325 4.03222C13.7388 4.08003 13.645 4.12597 13.5513 4.18409L9.37659 6.58878C9.26269 6.65454 9.16809 6.7491 9.10227 6.86297C9.03645 6.97684 9.00173 7.10601 9.00159 7.23753V12.001L7.50159 11.1347V6.75097ZM3.83222 8.15066C4.31007 7.31729 5.09128 6.70065 6.01284 6.42941C6.00628 6.53628 6.00159 6.64316 6.00159 6.75097V11.5678C6.00156 11.6995 6.0362 11.8289 6.10203 11.9429C6.16786 12.057 6.26255 12.1517 6.37659 12.2175L10.5016 14.5988L9.00159 15.4697L5.20472 13.2732C4.34344 12.7759 3.71499 11.9568 3.4576 10.9962C3.2002 10.0355 3.33496 9.01195 3.83222 8.15066ZM6.85941 18.8982C5.91433 18.6455 5.10539 18.0336 4.60518 17.1929C4.10496 16.3522 3.95307 15.3493 4.18191 14.3982C4.27097 14.4572 4.36097 14.5144 4.45472 14.5678L8.62659 16.981C8.74061 17.0468 8.86994 17.0815 9.00159 17.0815C9.13325 17.0815 9.26258 17.0468 9.37659 16.981L13.5016 14.5988V16.3313L9.70472 18.5232C9.27876 18.7706 8.80798 18.9311 8.3196 18.9955C7.83122 19.0598 7.33493 19.0268 6.85941 18.8982ZM16.5016 17.251C16.502 17.9843 16.2874 18.7017 15.8843 19.3143C15.4812 19.9269 14.9073 20.4079 14.2337 20.6977C13.56 20.9875 12.8162 21.0735 12.0942 20.9449C11.3722 20.8164 10.7038 20.4789 10.1716 19.9744C10.2653 19.9266 10.3591 19.876 10.4528 19.8216L14.6266 17.4132C14.7405 17.3474 14.8351 17.2528 14.9009 17.139C14.9667 17.0251 15.0015 16.8959 15.0016 16.7644V12.001L16.5016 12.8672V17.251ZM20.171 15.8513C19.6931 16.6847 18.9119 17.3013 17.9903 17.5725C17.9969 17.4657 18.0016 17.3588 18.0016 17.251V12.4341C18.0016 12.3024 17.967 12.173 17.9012 12.059C17.8353 11.945 17.7406 11.8502 17.6266 11.7844L13.5016 9.40316L15.0016 8.53691L18.7985 10.7288C19.6597 11.2261 20.2882 12.0451 20.5456 13.0058C20.803 13.9664 20.6682 14.99 20.171 15.8513Z" fill="#232323"/>
</svg>
