<svg width="25" height="24" viewBox="0 0 25 24" fill="none" xmlns="http://www.w3.org/2000/svg">
<path d="M10.9453 6C9.46196 6 8.01191 6.43987 6.77854 7.26398C5.54517 8.08809 4.58388 9.25943 4.01622 10.6299C3.44856 12.0003 3.30004 13.5083 3.58943 14.9632C3.87882 16.418 4.59312 17.7544 5.64201 18.8033C6.69091 19.8522 8.02728 20.5665 9.48214 20.8559C10.937 21.1453 12.445 20.9968 13.8154 20.4291C15.1859 19.8614 16.3572 18.9001 17.1813 17.6668C18.0054 16.4334 18.4453 14.9834 18.4453 13.5H10.9453V6Z" stroke="black" stroke-width="1.5" stroke-linecap="round" stroke-linejoin="round"/>
<path d="M13.9453 10.5H21.4453C21.4453 8.51088 20.6551 6.60322 19.2486 5.1967C17.8421 3.79018 15.9344 3 13.9453 3V10.5Z" stroke="black" stroke-width="1.5" stroke-linecap="round" stroke-linejoin="round"/>
</svg>
