<svg width="25" height="24" viewBox="0 0 25 24" fill="none" xmlns="http://www.w3.org/2000/svg">
<path d="M13.9453 16.875H17.3203M17.3203 16.875H20.6953M17.3203 16.875V13.5M17.3203 16.875V20.25M6.44531 10.5H8.69531C9.29205 10.5 9.86435 10.2629 10.2863 9.84099C10.7083 9.41903 10.9453 8.84674 10.9453 8.25V6C10.9453 5.40326 10.7083 4.83097 10.2863 4.40901C9.86435 3.98705 9.29205 3.75 8.69531 3.75H6.44531C5.84858 3.75 5.27628 3.98705 4.85432 4.40901C4.43237 4.83097 4.19531 5.40326 4.19531 6V8.25C4.19531 8.84674 4.43237 9.41903 4.85432 9.84099C5.27628 10.2629 5.84858 10.5 6.44531 10.5ZM6.44531 20.25H8.69531C9.29205 20.25 9.86435 20.0129 10.2863 19.591C10.7083 19.169 10.9453 18.5967 10.9453 18V15.75C10.9453 15.1533 10.7083 14.581 10.2863 14.159C9.86435 13.7371 9.29205 13.5 8.69531 13.5H6.44531C5.84858 13.5 5.27628 13.7371 4.85432 14.159C4.43237 14.581 4.19531 15.1533 4.19531 15.75V18C4.19531 18.5967 4.43237 19.169 4.85432 19.591C5.27628 20.0129 5.84858 20.25 6.44531 20.25ZM16.1953 10.5H18.4453C19.042 10.5 19.6143 10.2629 20.0363 9.84099C20.4583 9.41903 20.6953 8.84674 20.6953 8.25V6C20.6953 5.40326 20.4583 4.83097 20.0363 4.40901C19.6143 3.98705 19.042 3.75 18.4453 3.75H16.1953C15.5986 3.75 15.0263 3.98705 14.6043 4.40901C14.1824 4.83097 13.9453 5.40326 13.9453 6V8.25C13.9453 8.84674 14.1824 9.41903 14.6043 9.84099C15.0263 10.2629 15.5986 10.5 16.1953 10.5Z" stroke="black" stroke-width="1.5" stroke-linecap="round" stroke-linejoin="round"/>
</svg>
