<svg width="25" height="24" viewBox="0 0 25 24" fill="none" xmlns="http://www.w3.org/2000/svg">
<path d="M21.9034 2.45514C21.7872 2.3548 21.6458 2.28806 21.4945 2.26213C21.3432 2.23619 21.1877 2.25203 21.0447 2.30795L2.04529 9.74327C1.77603 9.84797 1.54806 10.0373 1.39572 10.2828C1.24338 10.5283 1.1749 10.8166 1.2006 11.1043C1.2263 11.3921 1.34478 11.6637 1.53821 11.8783C1.73164 12.0929 1.98955 12.2389 2.2731 12.2942L7.19592 13.2608V18.7498C7.19495 19.0488 7.2838 19.3412 7.45095 19.5891C7.61811 19.837 7.85587 20.029 8.13342 20.1401C8.41053 20.2533 8.71529 20.2805 9.00805 20.2181C9.30081 20.1557 9.56804 20.0067 9.77498 19.7905L12.1487 17.3286L15.9147 20.6248C16.1864 20.8658 16.5368 20.9992 16.9 20.9998C17.0591 20.9997 17.2173 20.9747 17.3687 20.9258C17.6162 20.8472 17.8387 20.7053 18.0142 20.514C18.1898 20.3227 18.3121 20.0887 18.369 19.8355L22.1744 3.28108C22.2084 3.13178 22.2012 2.97603 22.1534 2.83053C22.1057 2.68503 22.0193 2.55527 21.9034 2.45514ZM16.1715 5.83014L7.77248 11.8451L3.12248 10.933L16.1715 5.83014ZM8.69592 18.7498V14.2986L11.02 16.3367L8.69592 18.7498ZM16.9019 19.4998L9.1506 12.703L20.3069 4.70702L16.9019 19.4998Z" fill="black"/>
</svg>
