<svg width="24" height="24" viewBox="0 0 24 24" fill="none" xmlns="http://www.w3.org/2000/svg">
<path d="M17.25 6C17.25 8.8995 14.8995 11.25 12 11.25C9.1005 11.25 6.75 8.8995 6.75 6C6.75 3.1005 9.1005 0.75 12 0.75C14.8995 0.75 17.25 3.1005 17.25 6Z" stroke="black" stroke-width="1.5"/>
<mask id="path-2-inside-1_5361_50138" fill="white">
<path d="M12 13C7.03172 13.0055 0.00553125 17.0317 0 22C0 22.5523 0.447719 23 1 23H23C23.5523 23 24 22.5523 24 22C23.9945 17.0317 16.9683 13.0055 12 13Z"/>
</mask>
<path d="M12 13L12.0017 11.5L11.9983 11.5L12 13ZM0 22L-1.5 21.9983V22H0ZM24 22H25.5V21.9983L24 22ZM11.9983 11.5C9.16546 11.5032 5.87726 12.631 3.29158 14.4013C0.74221 16.1467 -1.49643 18.7892 -1.5 21.9983L1.5 22.0017C1.50196 20.2425 2.77918 18.3878 4.98636 16.8767C7.15722 15.3904 9.86625 14.5024 12.0017 14.5L11.9983 11.5ZM-1.5 22C-1.5 23.3807 -0.380708 24.5 1 24.5V21.5C1.27615 21.5 1.5 21.7239 1.5 22H-1.5ZM1 24.5H23V21.5H1V24.5ZM23 24.5C24.3807 24.5 25.5 23.3807 25.5 22H22.5C22.5 21.7239 22.7239 21.5 23 21.5V24.5ZM25.5 21.9983C25.4965 18.7892 23.2578 16.1467 20.7084 14.4012C18.1228 12.631 14.8345 11.5031 12.0017 11.5L11.9983 14.5C14.1337 14.5024 16.8428 15.3904 19.0137 16.8767C21.2208 18.3878 22.4981 20.2425 22.5 22.0017L25.5 21.9983Z" fill="black" mask="url(#path-2-inside-1_5361_50138)"/>
</svg>
