<svg width="25" height="24" viewBox="0 0 25 24" fill="none" xmlns="http://www.w3.org/2000/svg">
<path d="M15.8616 11.3756L11.3616 8.37563C11.2486 8.30025 11.1173 8.25697 10.9816 8.2504C10.846 8.24382 10.7111 8.27421 10.5913 8.33831C10.4716 8.40241 10.3715 8.49783 10.3018 8.61436C10.232 8.7309 10.1952 8.86419 10.1953 9V15C10.1952 15.1358 10.232 15.2691 10.3018 15.3856C10.3715 15.5022 10.4716 15.5976 10.5913 15.6617C10.7111 15.7258 10.846 15.7562 10.9816 15.7496C11.1173 15.743 11.2486 15.6998 11.3616 15.6244L15.8616 12.6244C15.9644 12.5559 16.0488 12.4631 16.1072 12.3542C16.1655 12.2452 16.196 12.1236 16.196 12C16.196 11.8764 16.1655 11.7548 16.1072 11.6458C16.0488 11.5369 15.9644 11.4441 15.8616 11.3756ZM11.6953 13.5984V10.4063L14.0934 12L11.6953 13.5984ZM22.4137 6.5175C22.3254 6.17189 22.1562 5.85224 21.92 5.58491C21.6838 5.31758 21.3874 5.11024 21.0553 4.98C17.8416 3.73875 12.7266 3.75 12.4453 3.75C12.1641 3.75 7.04906 3.73875 3.83531 4.98C3.50322 5.11024 3.20684 5.31758 2.97065 5.58491C2.73446 5.85224 2.56521 6.17189 2.47688 6.5175C2.23406 7.45313 1.94531 9.16313 1.94531 12C1.94531 14.8369 2.23406 16.5469 2.47688 17.4825C2.56508 17.8283 2.73427 18.1481 2.97047 18.4156C3.20667 18.6831 3.50311 18.8906 3.83531 19.0209C6.91406 20.2088 11.7328 20.25 12.3834 20.25H12.5072C13.1578 20.25 17.9794 20.2088 21.0553 19.0209C21.3875 18.8906 21.684 18.6831 21.9202 18.4156C22.1564 18.1481 22.3255 17.8283 22.4137 17.4825C22.6566 16.545 22.9453 14.8369 22.9453 12C22.9453 9.16313 22.6566 7.45313 22.4137 6.5175ZM20.9616 17.1113C20.933 17.2263 20.8776 17.3329 20.7998 17.4224C20.7221 17.5118 20.6243 17.5816 20.5144 17.6259C17.5472 18.7716 12.5006 18.7509 12.4519 18.7509H12.4453C12.3947 18.7509 7.35187 18.7697 4.38281 17.6259C4.27291 17.5816 4.17508 17.5118 4.09735 17.4224C4.01962 17.3329 3.9642 17.2263 3.93562 17.1113C3.70781 16.2553 3.44531 14.6784 3.44531 12C3.44531 9.32157 3.70781 7.74469 3.92906 6.89344C3.9571 6.77774 4.01229 6.67037 4.09005 6.58022C4.16781 6.49007 4.26591 6.41972 4.37625 6.375C7.2375 5.26969 12.0319 5.25 12.4247 5.25H12.45C12.5006 5.25 17.5481 5.23313 20.5125 6.375C20.6224 6.41936 20.7202 6.48913 20.798 6.57859C20.8757 6.66806 20.9311 6.77467 20.9597 6.88969C21.1828 7.74469 21.4453 9.32157 21.4453 12C21.4453 14.6784 21.1828 16.2553 20.9616 17.1066V17.1113Z" fill="black"/>
</svg>
